HIERARCHY
ROOT pelvis
{
  OFFSET 0 100 0
  CHANNELS 6 Xposition Yposition Zposition Zrotation Xrotation Yrotation
  JOINT pelvis_right_femur
  {
    OFFSET -10.78128 -3.44521 -0.5502486
    CHANNELS 3 Zrotation Xrotation Yrotation
    JOINT right_femur_tibia
    {
      OFFSET -0.8047443 -44.0398 -0.1307829
      CHANNELS 3 Zrotation Xrotation Yrotation
      JOINT right_tibia_foot
      {
        OFFSET 3.006224 -47.83518 -5
        CHANNELS 3 Zrotation Xrotation Yrotation
        End Site
        {
          OFFSET 0 -5 15
        }
      }
    }
  }
  JOINT pelvis_left_femur
  {
    OFFSET 10.78128 -3.44521 -0.5502486
    CHANNELS 3 Zrotation Xrotation Yrotation
    JOINT left_femur_tibia
    {
      OFFSET 0.8047443 -44.0398 -0.1307829
      CHANNELS 3 Zrotation Xrotation Yrotation
      JOINT left_tibia_foot
      {
        OFFSET -4.370144 -48.10324 -4.275266
        CHANNELS 3 Zrotation Xrotation Yrotation
        End Site
        {
          OFFSET 0 -5 15
        }
      }
    }
  }
  JOINT pelvis_spine1
  {
    OFFSET 0 6.468898 -3.129235
    CHANNELS 3 Zrotation Xrotation Yrotation
    JOINT spine1
    {
      OFFSET 0 23.15396 4.99043
      CHANNELS 3 Zrotation Xrotation Yrotation
      JOINT spine2
      {
        OFFSET 0 20.79997 -5.064912
        CHANNELS 3 Zrotation Xrotation Yrotation
        JOINT neck
        {
          OFFSET 0 14.38658 9.616178
          CHANNELS 3 Zrotation Xrotation Yrotation
          End Site
          {
            OFFSET 0 20 0
          }
        }
      }
      JOINT right_manubrium
      {
        OFFSET -5.722621 16.35077 3.967754
        CHANNELS 3 Zrotation Xrotation Yrotation
        JOINT right_clavicle
        {
          OFFSET -13.16364 1.694482 -4.693211
          CHANNELS 3 Zrotation Xrotation Yrotation
          JOINT right_humerus
          {
            OFFSET -28.5034 -0.3100689 -2.792744
            CHANNELS 3 Zrotation Xrotation Yrotation
            JOINT right_radius
            {
              OFFSET -25.15693 0.02248979 -1.271978
              CHANNELS 3 Zrotation Xrotation Yrotation
              End Site
              {
                OFFSET -15 0 0
              }
            }
          }
        }
      }
      JOINT left_manubrium
      {
        OFFSET 5.722621 16.35077 3.967754
        CHANNELS 3 Zrotation Xrotation Yrotation
        JOINT left_clavicle
        {
          OFFSET 13.16364 1.694482 -4.693211
          CHANNELS 3 Zrotation Xrotation Yrotation
          JOINT left_humerus
          {
            OFFSET 29.39168 -1.063119 -2.237045
            CHANNELS 3 Zrotation Xrotation Yrotation
            JOINT left_radius
            {
              OFFSET 24.59957 -0.9528479 0.9047498
              CHANNELS 3 Zrotation Xrotation Yrotation
              End Site
              {
                OFFSET 15 -0 -0
              }
            }
          }
        }
      }
    }
  }
}
MOTION
Frames: 9
Frame Time: 0.0416666666667
0 103.5113 0 2.649319 0.8743069 0.1313691 3.204101 -15.4283 10.85293 -0 36.76961 -0 -3.607461 -18.86571 -3.754456 -9.482886 10.15178 -20.9221 -0 4.769608 -0 21.68919 -10.64242 29.76792 -2.722673 -2.011377 4.54262 3.250598 9.925732 -7.1835 1.85333 21.58642 7.043994 2.570116 -25.58581 11.15067 6.305079 -18.90177 11.94258 86.01001 39.21746 -17.54161 -0 0 14.18082 -4.510975 9.012561 3.492188 5.062479 -18.82998 -1.363933 -91.11622 20.52931 19.6488 0 0 -16.77957 15.45396 12.74114 -4.114593
0.3839305 103.2614 1.737211 2.180143 1.557366 0.2411993 4.240519 -17.84912 11.82557 -0 36.82246 -0 -3.748622 -18.50695 -3.865421 -9.264617 10.05602 -21.05982 -0 5.157064 -0 22.16682 -10.78351 30.38906 -2.925986 -2.043875 4.643328 3.251697 9.85773 -7.100607 1.73951 21.39577 7.375828 2.722192 -26.25641 11.44284 6.023404 -19.50238 11.9725 86.25569 40.12975 -17.50025 -0 0 14.3619 -4.370444 8.666276 3.81184 5.100267 -18.7087 -1.480037 -90.73161 20.41527 19.76997 0 0 -18.51036 16.07976 11.63069 -4.647053
0.7035579 102.7106 3.767852 1.480911 0.5455009 0.3536625 4.593486 -20.47024 8.823345 -0 33.85108 -0 -5.493758 -15.41106 -2.723587 -8.323101 11.0531 -20.87739 -0 6.008579 -0 18.78844 -13.0092 28.83621 -2.694479 -2.165419 4.443561 3.470317 9.971252 -7.561462 1.621775 21.05114 7.312977 2.759396 -26.42668 11.06981 5.695187 -19.13258 11.86703 87.41383 39.17078 -19.61264 -0 0 12.89302 -4.878637 8.745881 4.110875 5.483081 -19.53106 -1.820337 -90.02782 20.89214 18.92807 0 0 -20.81093 15.48276 11.07355 -3.521377
0.9778547 101.9874 6.123824 0.8717892 0.1157783 0.3992965 5.001294 -23.32929 6.737148 -0 30.89402 -0 -6.690862 -12.63434 -1.859279 -7.602178 11.82774 -20.36761 -0 6.771367 -0 16.3709 -14.82384 27.43691 -2.504874 -2.186512 4.266936 3.574914 10.07387 -7.858929 1.593091 20.93442 7.160524 2.73624 -26.17774 10.71765 5.629521 -18.65857 11.80449 87.9843 38.31762 -20.79931 -0 0 11.9598 -5.319211 8.969536 4.200982 5.67393 -20.04887 -2.000646 -89.64752 21.16506 18.24539 0 0 -21.54679 14.83833 11.1103 -2.633066
1.226297 101.1201 8.869683 0.4271277 -0.04124599 0.4336222 5.310753 -26.00419 4.966996 -0 27.70566 -0 -7.601802 -10.01583 -1.078901 -7.130255 12.50239 -19.48476 -0 7.648967 -0 15.06687 -16.0744 26.15907 -2.348503 -2.161479 4.113125 3.623231 10.18251 -8.076517 1.591749 20.90965 6.980397 2.697645 -25.76609 10.3694 5.669737 -18.18247 11.76935 88.28228 37.53455 -21.54175 -0 0 11.3016 -5.766694 9.235909 4.246269 5.772193 -20.42217 -2.121024 -89.39967 21.33554 17.66018 0 0 -21.63444 14.15591 11.33778 -1.833176
1.457717 100.1437 12.06068 0.1061951 -0.03669203 0.4959817 5.509971 -28.37133 3.354274 -0 24.30149 -0 -8.342481 -7.490468 -0.3705714 -6.822514 13.15326 -18.37657 -0 8.807635 -0 14.27888 -16.98269 24.87969 -2.222639 -2.124374 4.002033 3.634828 10.29005 -8.231246 1.594525 20.92142 6.811133 2.662919 -25.3447 10.05343 5.74556 -17.78698 11.75101 88.41481 36.85521 -21.98985 -0 0 10.87412 -6.195297 9.47872 4.288062 5.819722 -20.69507 -2.20096 -89.26659 21.45145 17.23789 0 0 -21.40932 13.50244 11.60805 -1.120527
1.674803 99.102 15.75183 -0.1086828 -0.03009904 0.613374 5.577362 -30.1773 1.766794 -0 20.83639 -0 -9.029186 -4.993554 0.2833085 -6.617752 13.80821 -17.08635 -0 10.51724 -0 13.6591 -17.53216 23.47011 -2.124528 -2.084736 3.927638 3.623034 10.3896 -8.338803 1.594247 20.94682 6.662266 2.63585 -24.95431 9.771337 5.825785 -17.47686 11.743 88.44647 36.28098 -22.2407 -0 0 10.61024 -6.606115 9.684672 4.3483 5.838535 -20.89798 -2.256761 -89.19691 21.53266 16.93865 0 0 -21.06655 12.90015 11.85652 -0.4889321
1.875378 98.06894 19.98394 -0.2678619 -0.1120835 0.7935885 5.600179 -31.24045 0.3095611 -0 17.6482 -0 -9.702378 -2.558211 0.8324533 -6.439381 14.42395 -15.66686 -0 13.09573 -0 12.90481 -17.63003 21.85125 -2.047696 -2.048608 3.883747 3.596723 10.47922 -8.412448 1.588476 20.97393 6.535954 2.617211 -24.61293 9.521696 5.896737 -17.24422 11.74044 88.42012 35.798 -22.36596 -0 0 10.46112 -6.996306 9.852049 4.428248 5.843128 -21.0541 -2.296842 -89.1686 21.59605 16.73899 0 0 -20.69831 12.35452 12.06416 0.07436598
2.053464 97.15034 24.77162 -0.4365525 -0.3651167 1.014853 5.721306 -31.40056 -0.8239971 -0 15.15513 -0 -10.37658 -0.292567 1.208985 -6.200055 14.88364 -14.16302 -0 16.89415 -0 11.81649 -17.091 19.99495 -1.987748 -2.016635 3.862562 3.561347 10.55861 -8.461375 1.577708 20.99907 6.429648 2.605581 -24.31776 9.299848 5.954971 -17.07323 11.74099 88.35941 35.39127 -22.40791 -0 0 10.39042 -7.367421 9.986862 4.525769 5.840022 -21.17705 -2.326878 -89.16324 21.64857 16.60984 0 0 -20.34511 11.86198 12.22894 0.5797039
